<svg xmlns="http://www.w3.org/2000/svg" viewBox="0 0 218.32 311.12">
    <defs>
        <style>.cls-1{fill:#fff;}</style>
    </defs>
    <g id="Layer_2" data-name="Layer 2">
        <g id="Layer_1-2" data-name="Layer 1">
            <path class="cls-1" d="M0,140.56c0-15.45,0-30.9,0-46.34C0,93.23.27,93,1.2,93q24.32,0,48.61,0c7.56,0,15.11.08,22.67,0A28.91,28.91,0,0,0,84,90.8a17.33,17.33,0,0,0,9.68-10.47,26.58,26.58,0,0,0-.33-19.42c-2.57-6.31-7.54-9.77-14.09-11.14A37.94,37.94,0,0,0,71.14,49H24.81c-1.49,0-1.29.2-1.29-1.33q0-23.22,0-46.44c0-1,.24-1.19,1.2-1.19,18,0,35.92-.1,53.88.1a92.74,92.74,0,0,1,36.51,7.45c13.52,5.93,24.23,15,31.47,28a66.49,66.49,0,0,1,7.58,23.06,88,88,0,0,1,.54,20.13A67.28,67.28,0,0,1,145,109.09a66.21,66.21,0,0,1-13.86,15.84,59.82,59.82,0,0,1-11.35,7.23A85.24,85.24,0,0,1,97.35,140,110.49,110.49,0,0,1,76.43,142q-12.23.07-24.45,0c-1.06,0-1.22.31-1.22,1.27q0,21.67,0,43.36c0,1.45.16,1.3-1.25,1.3q-24.15,0-48.31,0C.16,188,0,187.65,0,186.7Q0,163.63,0,140.56Z"/>
            <path class="cls-1" d="M25.49,206.89c8.08,0,16.17,0,24.25,0,.77,0,1,.1,1.07,1a48.93,48.93,0,0,0,14.64,34.28,48.43,48.43,0,0,0,31.18,14.49c15.35,1.25,28.69-3.52,39.72-14.25A48.18,48.18,0,0,0,151,212.09c.15-1.48.25-3,.28-4.46,0-.63.21-.76.8-.75,3.21,0,6.42,0,9.64,0q21.42,0,42.84,0c.94,0,1.11.28,1.1,1.14a109,109,0,0,1-9.73,45.07,96.05,96.05,0,0,1-35.08,40.78,102.67,102.67,0,0,1-36.46,15A119.36,119.36,0,0,1,95,311a107.33,107.33,0,0,1-30.34-5.59c-20.14-7-36.73-18.89-49.23-36.26A99.33,99.33,0,0,1,.16,236.41,4,4,0,0,1,0,235.33c0-9.18,0-18.36,0-27.54,0-.76.2-.92.93-.92C9.12,206.9,17.3,206.89,25.49,206.89Z"/>
            <path class="cls-1" d="M178.58,187.78a39.76,39.76,0,1,1,39.74-39.65A39.77,39.77,0,0,1,178.58,187.78Z"/>
        </g>
    </g>
</svg>