<svg xmlns="http://www.w3.org/2000/svg" viewBox="0 0 266.54 54.88">
    <defs><style>.cls-1{fill:#fff;}</style></defs>
    <g id="Layer_2" data-name="Layer 2">
        <g id="Layer_1-2" data-name="Layer 1">
            <rect class="cls-1" width="10.97" height="30.8"/>
            <rect class="cls-1" x="15.73" width="6.21" height="21.19"/>
            <rect class="cls-1" x="77.87" width="6.21" height="21.19"/>
            <polygon class="cls-1" points="26.7 21.2 26.7 0 25.58 0 25.58 21.2 21.94 21.2 21.94 30.8 32.91 30.8 32.91 21.2 26.7 21.2"/>
            <rect class="cls-1" x="51.17" width="1.12" height="21.19"/>
            <rect class="cls-1" x="88.84" width="6.36" height="30.8"/>
            <rect class="cls-1" x="63.25" width="3.64" height="21.19"/>
            <rect class="cls-1" x="37.67" width="3.64" height="21.19"/>
            <rect class="cls-1" x="32.91" width="3.64" height="21.19"/>
            <rect class="cls-1" x="58.49" width="3.64" height="21.19"/>
            <rect class="cls-1" x="47.52" width="1.12" height="21.19"/>
            <polygon class="cls-1" points="74.22 21.2 74.22 0 73.11 0 73.11 21.2 66.9 21.2 66.9 30.8 77.87 30.8 77.87 21.2 74.22 21.2"/>
            <rect class="cls-1" x="99.8" width="8.64" height="30.8"/>
            <polygon class="cls-1" points="110.92 30.8 121.69 30.8 121.69 28.95 110.92 18.5 110.92 30.8"/>
            <polygon class="cls-1" points="110.92 0 110.92 10.93 121.69 2.52 121.69 0 110.92 0"/>
            <polygon class="cls-1" points="124.17 0 124.17 0.58 124.91 0 124.17 0"/>
            <polygon class="cls-1" points="163.92 0 163.92 0.58 164.66 0 163.92 0"/>
            <polygon class="cls-1" points="134.94 6.88 134.94 2.52 124.17 10.93 124.17 0.58 121.69 2.52 121.69 28.95 123.59 30.8 124.17 30.8 124.17 18.5 134.94 28.95 134.94 22.32 125.74 13.83 134.94 6.88"/>
            <polygon class="cls-1" points="163.92 24.61 170.62 30.8 176.58 30.8 163.92 18.5 163.92 24.61"/>
            <polygon class="cls-1" points="177.91 0 170.54 0 163.92 5 163.92 10.93 177.91 0"/>
            <polygon class="cls-1" points="144.12 30.8 137.42 24.61 137.42 30.8 144.12 30.8"/>
            <polygon class="cls-1" points="144.04 0 138.16 0 137.42 0.58 137.42 5 144.04 0"/>
            <polygon class="cls-1" points="137.42 0 134.94 0 134.94 2.52 137.42 0.58 137.42 0"/>
            <polygon class="cls-1" points="136.84 30.8 134.94 28.95 134.94 30.8 136.84 30.8"/>
            <polygon class="cls-1" points="148.19 6.88 148.19 2.52 137.42 10.93 137.42 5 134.94 6.88 134.94 22.32 137.42 24.61 137.42 18.5 148.19 28.95 148.19 22.32 138.99 13.83 148.19 6.88"/>
            <polygon class="cls-1" points="181.63 11.64 181.63 1.63 165.49 13.83 181.63 28.73 181.63 16.5 178.74 13.83 181.63 11.64"/>
            <polygon class="cls-1" points="157.37 30.8 150.67 24.61 150.67 30.8 157.37 30.8"/>
            <polygon class="cls-1" points="157.29 0 151.41 0 150.67 0.58 150.67 5 157.29 0"/>
            <polygon class="cls-1" points="150.09 30.8 148.19 28.95 148.19 30.8 150.09 30.8"/>
            <polygon class="cls-1" points="150.67 0 148.19 0 148.19 2.52 150.67 0.58 150.67 0"/>
            <polygon class="cls-1" points="163.92 5 163.92 0.58 150.67 10.93 150.67 5 148.19 6.88 148.19 22.32 150.67 24.61 150.67 18.5 163.34 30.8 163.92 30.8 163.92 24.61 152.24 13.83 163.92 5"/>
            <polygon class="cls-1" points="181.63 11.64 181.63 16.5 190.77 24.94 190.77 4.73 181.63 11.64"/>
            <polygon class="cls-1" points="181.63 0 181.63 1.63 183.78 0 181.63 0"/>
            <polygon class="cls-1" points="183.87 30.8 181.63 28.73 181.63 30.8 183.87 30.8"/>
            <polygon class="cls-1" points="197.36 0 197.36 17.43 199.91 14.79 199.91 0 197.36 0"/>
            <polygon class="cls-1" points="199.91 30.8 199.91 28.17 197.36 30.8 199.91 30.8"/>
            <polygon class="cls-1" points="190.77 0 190.77 4.73 197.03 0 190.77 0"/>
            <polygon class="cls-1" points="190.77 30.8 197.12 30.8 190.77 24.94 190.77 30.8"/>
            <polygon class="cls-1" points="209.05 30.8 209.05 28.17 206.5 30.8 209.05 30.8"/>
            <polygon class="cls-1" points="239.12 0 239.12 2.63 241.67 0 239.12 0"/>
            <polygon class="cls-1" points="209.05 0 206.5 0 206.5 8 209.05 5.36 209.05 0"/>
            <polygon class="cls-1" points="239.12 30.8 241.67 30.8 241.67 22.82 239.12 25.45 239.12 30.8"/>
            <polygon class="cls-1" points="206.5 17.43 206.5 8 199.91 14.79 199.91 28.17 209.05 18.76 209.05 14.79 206.5 17.43"/>
            <polygon class="cls-1" points="248.26 16.04 248.26 30.8 250.81 30.8 250.81 13.41 248.26 16.04"/>
            <polygon class="cls-1" points="248.26 0 248.26 2.63 250.81 0 248.26 0"/>
            <polygon class="cls-1" points="218.19 14.79 218.19 5.36 215.64 8 215.64 17.43 218.19 14.79"/>
            <polygon class="cls-1" points="214.25 22.82 214.25 30.8 215.64 30.8 218.19 28.17 218.19 18.76 214.25 22.82"/>
            <polygon class="cls-1" points="215.64 8 215.64 0 214.25 0 209.05 5.36 209.05 14.79 215.64 8"/>
            <polygon class="cls-1" points="239.12 12.07 239.12 2.63 233.92 8 233.92 17.43 239.12 12.07"/>
            <polygon class="cls-1" points="209.05 18.76 209.05 28.17 214.25 22.82 214.25 13.41 209.05 18.76"/>
            <rect class="cls-1" x="257.4" width="9.14" height="30.8"/>
            <polygon class="cls-1" points="229.98 0 224.78 0 224.78 8 229.98 2.63 229.98 0"/>
            <polygon class="cls-1" points="229.98 30.8 229.98 25.45 224.78 30.8 229.98 30.8"/>
            <polygon class="cls-1" points="232.53 22.82 232.53 30.8 233.92 30.8 239.12 25.45 239.12 16.04 232.53 22.82"/>
            <polygon class="cls-1" points="233.92 8 233.92 0 232.53 0 229.98 2.63 229.98 12.07 233.92 8"/>
            <polygon class="cls-1" points="218.19 0 218.19 5.36 223.39 0 218.19 0"/>
            <polygon class="cls-1" points="218.19 30.8 223.39 30.8 223.39 22.82 218.19 28.17 218.19 30.8"/>
            <polygon class="cls-1" points="229.98 16.04 229.98 25.45 232.53 22.82 232.53 13.41 229.98 16.04"/>
            <polygon class="cls-1" points="239.12 12.07 239.12 16.04 241.67 13.41 241.67 22.82 248.26 16.04 248.26 2.63 239.12 12.07"/>
            <polygon class="cls-1" points="224.78 17.43 224.78 8 218.19 14.79 218.19 18.76 223.39 13.41 223.39 22.82 229.98 16.04 229.98 12.07 224.78 17.43"/>
            <rect class="cls-1" x="56.91" y="42.67" width="1.83" height="8.01"/>
            <rect class="cls-1" x="60.23" y="42.67" width="1.82" height="8.01"/>
            <rect class="cls-1" x="63.56" y="42.67" width="1.83" height="8.01"/>
            <rect class="cls-1" x="66.89" y="42.67" width="1.82" height="8.01"/>
            <polygon class="cls-1" points="72.9 42.67 71.08 42.67 68.79 46.21 71.53 50.69 73.36 50.69 70.61 46.21 72.9 42.67"/>
            <polygon class="cls-1" points="84.08 42.67 85.45 50.69 87.28 50.69 85.91 42.67 84.08 42.67"/>
            <path class="cls-1" d="M76.86,42.46a4.2,4.2,0,1,0,4.19,4.2A4.2,4.2,0,0,0,76.86,42.46Zm0,6.8a2.6,2.6,0,1,1,2.6-2.6A2.59,2.59,0,0,1,76.86,49.26Z"/>
            <path class="cls-1" d="M94.05,43.57a3.83,3.83,0,0,0-2.59-1.11,4.2,4.2,0,0,0,0,8.4,3.65,3.65,0,0,0,2.59-1.19v1h1.83v-8H94.05ZM91.6,49.12a2.46,2.46,0,1,1,2.45-2.46A2.46,2.46,0,0,1,91.6,49.12Z"/>
            <polygon class="cls-1" points="80.89 50.69 82.72 50.69 84.08 42.67 82.26 42.67 80.89 50.69"/>
            <rect class="cls-1" x="143.56" y="42.67" width="1.83" height="8.01"/>
            <rect class="cls-1" x="149.49" y="42.67" width="1.83" height="8.01"/>
            <polygon class="cls-1" points="164.69 45.81 161.18 45.81 161.18 42.67 159.35 42.67 159.35 50.69 161.18 50.69 161.18 47.27 164.69 47.27 164.69 50.69 166.52 50.69 166.52 42.67 164.69 42.67 164.69 45.81"/>
            <rect class="cls-1" x="174.59" y="42.67" width="1.82" height="8.01"/>
            <polygon class="cls-1" points="145.38 50.69 147.21 50.69 149.44 42.67 147.61 42.67 145.38 50.69"/>
            <rect class="cls-1" x="101.39" y="42.67" width="1.83" height="8.01"/>
            <polygon class="cls-1" points="107.4 42.67 105.57 42.67 103.28 46.21 106.03 50.69 107.86 50.69 105.11 46.21 107.4 42.67"/>
            <path class="cls-1" d="M112.85,42.46a3.83,3.83,0,0,0-2.59,1.11v-.9h-1.83V54.25h1.83V49.67a3.67,3.67,0,0,0,2.59,1.19,4.2,4.2,0,1,0,0-8.4Zm-.13,6.66a2.46,2.46,0,1,1,2.46-2.46A2.46,2.46,0,0,1,112.72,49.12Z"/>
            <path class="cls-1" d="M133.42,43.57a3.88,3.88,0,0,0-2.6-1.11,4.2,4.2,0,0,0,0,8.4,3.69,3.69,0,0,0,2.6-1.19v1h1.82v-8h-1.82ZM131,49.12a2.46,2.46,0,1,1,2.46-2.46A2.46,2.46,0,0,1,131,49.12Z"/>
            <polygon class="cls-1" points="138.4 42.67 136.05 42.67 136.05 44.13 138.4 44.13 138.4 50.69 140.22 50.69 140.22 44.13 142.71 44.13 142.71 42.67 140.22 42.67 138.4 42.67"/>
            <path class="cls-1" d="M121.82,42.46a4.2,4.2,0,1,0,4,5.37H124a2.44,2.44,0,0,1-2.19,1.43,2.49,2.49,0,0,1-2.39-2H126a4.07,4.07,0,0,0,.05-.61A4.19,4.19,0,0,0,121.82,42.46Zm-2.33,3.35a2.42,2.42,0,0,1,4.65,0Z"/>
            <path class="cls-1" d="M157.54,46.24a2.09,2.09,0,0,0,.61-1.47,2.18,2.18,0,0,0-2.22-2.13h-3.64v8h3.64a2.52,2.52,0,0,0,2.6-2.46A2.44,2.44,0,0,0,157.54,46.24Zm-3.43-2.32h1.49a.78.78,0,0,1,.81.85.88.88,0,0,1-.48.88.62.62,0,0,1-.26,0v.11h0v-.11h-1.56Zm1.55,5.45h-1.55V47h1.66a1.19,1.19,0,0,1,1,1.22A1.13,1.13,0,0,1,155.66,49.37Z"/>
            <path class="cls-1" d="M173.19,46.24a3.17,3.17,0,0,0-1.87-.55h-1.56v-3h-1.83v8h3.65a2.51,2.51,0,0,0,2.59-2.46A2.43,2.43,0,0,0,173.19,46.24Zm-1.88,3.13h-1.55V47h1.65a1.19,1.19,0,0,1,1,1.22A1.13,1.13,0,0,1,171.31,49.37Z"/>
            <polygon class="cls-1" points="183.22 42.67 181.47 45.31 179.72 42.67 177.89 42.67 180.56 46.68 177.89 50.69 179.72 50.69 181.47 48.05 183.22 50.69 185.04 50.69 182.38 46.68 185.04 42.67 183.22 42.67"/>
            <rect class="cls-1" x="189.44" y="42.67" width="1.83" height="8.01"/>
            <rect class="cls-1" x="195.38" y="42.67" width="1.82" height="8.01"/>
            <polygon class="cls-1" points="191.27 50.69 193.09 50.69 195.32 42.67 193.5 42.67 191.27 50.69"/>
            <rect class="cls-1" x="249.66" y="42.67" width="1.83" height="8.01"/>
            <rect class="cls-1" x="255.59" y="42.67" width="1.83" height="8.01"/>
            <polygon class="cls-1" points="251.49 50.69 253.31 50.69 255.54 42.67 253.71 42.67 251.49 50.69"/>
            <rect class="cls-1" x="258.79" y="42.67" width="1.83" height="8.01"/>
            <rect class="cls-1" x="264.72" y="42.67" width="1.83" height="8.01"/>
            <polygon class="cls-1" points="263.31 41.14 261.49 41.14 261.01 42.67 262.84 42.67 260.61 50.69 262.44 50.69 264.66 42.67 262.84 42.67 263.31 41.14"/>
            <polygon class="cls-1" points="219.93 50.62 217.56 42.67 215.73 42.67 218.12 50.69 219.91 50.69 218.91 54.2 220.74 54.2 224 42.67 222.18 42.67 219.93 50.62"/>
            <path class="cls-1" d="M244.42,42.46a3.86,3.86,0,0,0-2.6,1.11v-.9H240V54.25h1.82V49.67a3.69,3.69,0,0,0,2.6,1.19,4.2,4.2,0,0,0,0-8.4Zm-.14,6.66a2.46,2.46,0,1,1,2.46-2.46A2.46,2.46,0,0,1,244.28,49.12Z"/>
            <polygon class="cls-1" points="203.85 45.81 200.34 45.81 200.34 42.67 198.51 42.67 198.51 50.69 200.34 50.69 200.34 47.27 203.85 47.27 203.85 50.69 205.68 50.69 205.68 42.67 203.85 42.67 203.85 45.81"/>
            <polygon class="cls-1" points="234.94 42.67 232.59 42.67 232.59 44.13 234.94 44.13 234.94 50.69 236.77 50.69 236.77 44.13 239.25 44.13 239.25 42.67 236.77 42.67 234.94 42.67"/>
            <path class="cls-1" d="M215.1,50.69v-8h-1.83v.9a3.83,3.83,0,0,0-2.59-1.11,4.2,4.2,0,0,0,0,8.4,3.69,3.69,0,0,0,2.59-1.19v1.09A2.37,2.37,0,0,1,209,52.07h-2a4.19,4.19,0,0,0,8.14-1.21h0v-.17Zm-4.29-1.57a2.46,2.46,0,1,1,2.46-2.46A2.46,2.46,0,0,1,210.81,49.12Z"/>
            <path class="cls-1" d="M228.43,49.26a2.6,2.6,0,0,1,0-5.2,2.42,2.42,0,0,1,2.08,1.22h1.88a4.2,4.2,0,1,0,.07,2.55h-1.84A2.43,2.43,0,0,1,228.43,49.26Z"/>
            <rect class="cls-1" x="25.59" y="42.67" width="1.83" height="8.01"/>
            <rect class="cls-1" x="28.92" y="42.67" width="1.82" height="8.01"/>
            <rect class="cls-1" x="32.24" y="42.67" width="1.83" height="8.01"/>
            <path class="cls-1" d="M42,43.57a3.83,3.83,0,0,0-2.59-1.11,4.2,4.2,0,0,0,0,8.4A3.65,3.65,0,0,0,42,49.67v1h1.83v-8H42Zm-2.45,5.55A2.46,2.46,0,1,1,42,46.66,2.46,2.46,0,0,1,39.54,49.12Z"/>
            <rect class="cls-1" x="13.75" y="42.67" width="1.82" height="8.01"/>
            <path class="cls-1" d="M5.25,46.24a2.09,2.09,0,0,0,.61-1.47,2.17,2.17,0,0,0-2.22-2.13H0v8H3.64a2.52,2.52,0,0,0,2.6-2.46A2.44,2.44,0,0,0,5.25,46.24ZM1.83,43.92H3.32a.78.78,0,0,1,.81.85.88.88,0,0,1-.48.88.64.64,0,0,1-.26,0v.11h0v-.11H1.83Zm1.54,5.45H1.83V47H3.48a1.18,1.18,0,0,1,1,1.22A1.13,1.13,0,0,1,3.37,49.37Z"/>
            <path class="cls-1" d="M12.34,46.24a3.12,3.12,0,0,0-1.86-.55H8.91v-3H7.09v8h3.64a2.52,2.52,0,0,0,2.6-2.46A2.44,2.44,0,0,0,12.34,46.24Zm-1.88,3.13H8.91V47h1.66a1.19,1.19,0,0,1,1,1.22A1.13,1.13,0,0,1,10.46,49.37Z"/>
            <path class="cls-1" d="M20.62,49.26a2.6,2.6,0,0,1,0-5.2,2.45,2.45,0,0,1,2.08,1.22h1.87a4.2,4.2,0,1,0,.07,2.55H22.81A2.45,2.45,0,0,1,20.62,49.26Z"/>
            <path class="cls-1" d="M51.45,50.65H49.53V47.57l-2.37,3.08h-2.4l2.41-2.83A2.41,2.41,0,0,1,45,45.3,2.69,2.69,0,0,1,48,42.64h3.48Zm-1.92-6.3H48a1,1,0,0,0-1.07,1,1,1,0,0,0,1.07,1h1.49Z"/>
        </g>
    </g>
</svg>